<?xml version="1.0" standalone="no"?><!DOCTYPE svg PUBLIC "-//W3C//DTD SVG 1.1//EN" "http://www.w3.org/Graphics/SVG/1.1/DTD/svg11.dtd"><svg t="1576985994762" class="icon" viewBox="0 0 1024 1024" version="1.1" xmlns="http://www.w3.org/2000/svg" p-id="5768" data-spm-anchor-id="a313x.7781069.0.i2" width="800" height="800" xmlns:xlink="http://www.w3.org/1999/xlink"><defs><style type="text/css"></style></defs><path d="M1011.135 401.887c59.995 266.134-108.34 530.792-375.988 591.128-267.653 60.339-533.258-106.495-593.254-372.632-59.995-266.134 116.143-532.551 375.99-591.129 267.648-60.337 533.256 106.497 593.252 372.633z" fill="#D72747" p-id="5769" data-spm-anchor-id="a313x.7781069.0.i1" class=""></path><path d="M1011.135 401.887c7.166 31.608 11.256 63.912 12.244 96.322 0.456 16.205 0.199 32.439-0.896 48.626a512.974 512.974 0 0 1-5.604 48.352c-10.573 64.098-33.711 126.213-67.727 182.021-33.984 55.816-78.813 105.383-131.766 144.824-26.482 19.691-54.896 36.977-84.859 51.271a517.404 517.404 0 0 1-93.674 34.154c-32.303 8.365-65.529 13.684-99.07 15.666-33.537 1.947-67.384 0.668-100.845-4.059-33.449-4.752-66.552-12.719-98.568-24.033a505.598 505.598 0 0 1-47.163-19.316 506.037 506.037 0 0 1-45.1-23.963c-58.568-34.918-110.292-81.869-150.688-137.4-20.227-27.736-37.597-57.602-51.791-88.912a516.201 516.201 0 0 1-18.867-47.969 526.004 526.004 0 0 1-13.922-49.605C5.227 594.311 1.01 559.932 0.48 525.508c-0.305-17.21 0.329-34.429 1.84-51.558a491.97 491.97 0 0 1 7.14-51.029c12.968-67.471 39.819-131.867 77.651-188.508a524.248 524.248 0 0 1 64.469-78.82c23.908-24.076 50.201-45.676 78.216-64.563 28.015-18.899 57.916-34.858 88.979-47.746a497.169 497.169 0 0 1 96.261-28.829c65.498-12.631 133.218-12.398 197.937 0.621 64.767 12.917 126.523 38.492 181.168 74.342 54.668 35.835 102.211 82.027 139.256 135.395a512.616 512.616 0 0 1 25.803 41.274c7.936 14.152 15.129 28.708 21.671 43.542 6.533 14.841 12.278 30.018 17.349 45.41a498.64 498.64 0 0 1 12.915 46.848z m0 0a498.252 498.252 0 0 0-13.055-46.804c-5.109-15.376-11.059-30.468-17.697-45.239-6.629-14.777-14.083-29.178-22.197-43.181-8.105-14.011-16.959-27.579-26.467-40.66-37.99-52.372-86.719-96.688-141.928-129.647a476.545 476.545 0 0 0-42.515-22.613 476.634 476.634 0 0 0-44.457-18.223c-30.173-10.688-61.374-18.176-92.883-22.652-31.521-4.46-63.397-5.645-94.983-3.805-31.606 1.881-62.855 6.891-93.383 14.805-30.343 7.868-59.875 18.854-87.902 32.56-28.064 13.675-54.611 30.211-79.358 48.96-49.464 37.58-91.366 84.489-123.364 137.041-32.017 52.55-54.087 110.828-64.377 170.926a479.143 479.143 0 0 0-5.523 45.328 472.982 472.982 0 0 0-1.059 45.583c0.809 30.383 4.582 60.662 11.344 90.309a466.328 466.328 0 0 0 12.207 44.004c4.756 14.461 10.192 28.693 16.34 42.617 12.244 27.871 27.235 54.539 44.644 79.576 34.823 50.076 79.521 93.473 130.952 127.152 51.405 33.699 109.508 57.754 170.431 69.893 60.896 12.238 124.542 12.484 186.37 0.564 30.91-5.945 61.346-14.842 90.688-26.719 29.324-11.902 57.62-26.648 84.17-44.227 26.547-17.566 51.51-37.736 74.178-60.344a481.432 481.432 0 0 0 61.026-74.229c35.718-53.473 60.706-114.418 72.542-178.027a466.064 466.064 0 0 0 6.456-48.086c1.322-16.131 1.872-32.336 1.52-48.528-0.343-16.19-1.442-32.375-3.428-48.456a499.227 499.227 0 0 0-8.292-47.878z" fill="#ffffff" p-id="5770" data-spm-anchor-id="a313x.7781069.0.i0" class=""></path><path d="M883.666 443.862c-23.06-12.82-83.54-43.87-106.26-52.53-28-10.66-88-27.33-89.33-20.66-1.34 6.66-7.34 8-15.34 12.66-8 4.67-19.33 4-32.66 0-13.34-4-16.67-24.42-16.67-24.42s-14.67-9.58-39.33-3.58c-24.67 6-28 22.67-54.83 26-26.82 3.34-34.51-13.33-51.84-16-17.33-2.66-31.33 0-31.33 0s-3.34 6.67-5.34 14.67-18.66 21.33-34.66 23.33-16-9.33-27.34-13.33c-11.33-4-29.084 0.887-43.996 5.334-19 5.667-25.334 15.336-64.004 29.996-32.18 12.21-69.76 74-81.46 94.37-0.57-2.281-1.07-4.631-1.51-7.06-3.12-17.18-3.08-38.02 1.729-63.31 23.24-122 118.061-111.22 130.061-129.22 6.649-9.98 17.09-23.66 30.449-37.971 10.73-11.5 23.341-23.39 37.4-34.09 4.72-3.59 9.3-7.18 13.97-10.68 26.55-19.93 55.851-37.101 127.87-35.82 84.69 1.5 86.19 10.5 126.69 28.5 6.7 2.98 13.109 6.61 19.18 10.641 23.31 15.46 41.58 36.699 51.74 48.72 3.189 3.78 5.58 6.64 7.08 8.14 7.5 7.5 55.5 0 89.989 39 31.463 35.549 56.692 64.879 59.742 107.31z" fill="#EEB03F" p-id="5771" data-spm-anchor-id="a313x.7781069.0.i5"></path><path d="M189.277 522.201a2.502 2.502 0 0 1-2.427-1.894 112.235 112.235 0 0 1-1.544-7.223c-3.396-18.701-2.813-40.309 1.733-64.219 7.562-39.693 23.772-70.137 48.182-90.485 20.739-17.288 43.472-24.396 60.07-29.587 10.922-3.415 19.548-6.112 22.185-10.067 4.694-7.046 14.926-21.391 30.702-38.29 12.112-12.98 24.801-24.546 37.714-34.373 1.899-1.445 3.776-2.89 5.645-4.328 2.724-2.097 5.54-4.265 8.34-6.362 25.544-19.175 54.091-36.388 121.917-36.388 2.45 0 4.94 0.022 7.496 0.067 70.655 1.252 83.69 7.599 109.659 20.244 5.188 2.525 11.066 5.389 18.003 8.472 6.468 2.877 13.044 6.524 19.547 10.842 24.33 16.137 43.199 38.461 52.267 49.188l0.754 0.894c2.727 3.233 4.88 5.788 6.185 7.093 1.688 1.688 8.178 2.659 15.049 3.688 18.849 2.823 50.394 7.547 75.046 35.423 30.61 34.589 57.057 64.476 60.337 108.468a2.5 2.5 0 0 1-2.45 2.999h-0.02c-0.418 0-0.836-0.104-1.215-0.315-24.113-13.406-84.025-44.027-105.936-52.379-22.756-8.664-68.966-22.025-83.734-22.025-1.31 0-2.036 0.114-2.409 0.205-1.469 5.816-6.064 8.193-11.354 10.931-1.599 0.827-3.251 1.682-5.022 2.714-4.087 2.386-9.12 3.596-14.958 3.596-5.703 0-12.141-1.099-19.68-3.361-12.847-3.852-17.206-20.527-18.189-25.213-2.439-1.288-9.903-4.657-21.218-4.657-4.946 0-10.088 0.641-15.283 1.904-10.925 2.657-17.316 7.382-24.084 12.384-7.848 5.801-15.962 11.799-31.029 13.669a57.97 57.97 0 0 1-7.134 0.459c-13.04 0-21.452-4.991-28.873-9.396-5.302-3.146-10.31-6.117-16.521-7.074-4.984-0.765-10.181-1.153-15.444-1.153-6.566 0-11.595 0.613-13.807 0.939-1 2.189-3.178 7.28-4.612 13.02-2.345 9.377-20.13 23.124-36.775 25.204a31.212 31.212 0 0 1-3.856 0.254c-8.261 0.001-12.298-3.99-15.861-7.511-2.511-2.482-4.883-4.827-8.765-6.196-2.517-0.889-5.604-1.339-9.176-1.339-9.938 0-22.386 3.464-33.273 6.711-8.395 2.504-14.33 5.867-21.846 10.125-9.256 5.244-20.774 11.771-41.986 19.813-31.563 11.976-69.35 74.423-80.179 93.276a2.514 2.514 0 0 1-2.171 1.253z m332.517-318.217c-66.286 0-94.074 16.739-118.917 35.387a831.435 831.435 0 0 0-8.29 6.325c-1.876 1.444-3.76 2.895-5.667 4.346-12.688 9.655-25.166 21.029-37.086 33.805-15.533 16.64-25.587 30.732-30.197 37.651-3.617 5.427-12.524 8.212-24.853 12.067-32.887 10.283-87.928 27.495-104.832 116.234-4.432 23.304-5.013 44.297-1.726 62.395 0.042 0.23 0.084 0.463 0.127 0.691 15.915-26.944 49.514-78.515 79.496-89.891 20.854-7.906 32.188-14.328 41.295-19.488 7.791-4.414 13.943-7.9 22.881-10.566 11.741-3.502 24.092-6.92 34.703-6.92 4.14 0 7.787 0.546 10.84 1.624 4.937 1.741 7.954 4.724 10.616 7.354 3.43 3.39 6.139 6.067 12.346 6.067 1.004 0 2.093-0.072 3.235-0.215 15.218-1.902 30.814-14.532 32.545-21.456 2.044-8.173 5.389-14.9 5.53-15.183a2.501 2.501 0 0 1 1.769-1.337c0.264-0.05 6.562-1.227 15.972-1.227 5.517 0 10.969 0.408 16.204 1.212 7.171 1.104 12.835 4.466 18.313 7.716 7.205 4.275 14.654 8.695 26.322 8.695 2.081 0 4.273-0.142 6.518-0.421 13.767-1.709 21.008-7.062 28.674-12.728 6.868-5.076 13.97-10.326 25.874-13.221 5.581-1.358 11.121-2.047 16.465-2.047 15.512 0 24.45 5.719 24.823 5.962 0.588 0.385 0.987 0.998 1.101 1.691 0.03 0.187 3.252 18.929 14.92 22.428 6.969 2.091 13.105 3.15 18.242 3.15 4.941 0 9.127-0.98 12.439-2.915 1.882-1.096 3.668-2.021 5.244-2.835 5.476-2.833 8.142-4.363 8.905-8.159 0.705-3.536 5.561-3.536 7.156-3.536 15.548 0 61.872 13.352 85.515 22.354 20.938 7.98 76.09 36.018 102.446 50.403-4.544-40.006-29.714-68.45-58.688-101.19-23.447-26.514-53.866-31.069-72.041-33.791-9.027-1.353-14.991-2.245-17.844-5.099-1.455-1.455-3.56-3.95-6.473-7.404l-0.751-0.891c-8.917-10.55-27.475-32.506-51.211-48.249-6.271-4.164-12.602-7.676-18.813-10.439-7.016-3.118-12.937-6.001-18.16-8.545-25.308-12.322-38.01-18.508-107.559-19.739a434.737 434.737 0 0 0-7.408-0.065z" fill="#231815" p-id="5772"></path><path d="M883.666 443.862c-23.06-12.82-83.54-43.87-106.26-52.53-28-10.66-88-27.33-89.33-20.66-1.34 6.66-7.34 8-15.34 12.66-8 4.67-19.33 4-32.66 0-13.34-4-16.67-24.42-16.67-24.42s-14.67-9.58-39.33-3.58c-24.67 6-28 22.67-54.83 26-26.82 3.34-34.51-13.33-51.84-16-17.33-2.66-28.994-2.003-31.33 0s-3.34 6.67-5.34 14.67-10.612 21.773-27.362 24.023c-15.981 2.146-23.298-10.023-34.638-14.023-11.33-4-33.82 0.522-49.329 5.001-14.95 4.317-32.17 5.44-61.751 28.249-17.08 13.17-66.68 76.08-78.38 96.45 16.68 67.729 84.8 72.969 84.8 72.969-26 16-26.67 124.42-16.67 154.66 25.28 76.451 130 114.67 130 114.67 13.13 7.441 33.23 12.33 56.09 15.48h0.01c16.17 2.23 33.71 3.59 51.15 4.35 37.23 1.641 73.95 0.6 95.64-0.369 12.311-0.551 19.78-1.08 19.78-1.08 9.53-1.02 19.87-2.711 30.561-4.93 41.47-8.59 87.97-25.182 110.77-42.121 37-27.5 88.67-79.33 86.96-155.33-1.14-51.02-38.44-96.969-38.44-96.969 61.5-17.99 82.5-74.99 84-124.49 0.13-4.361 0.039-8.581-0.261-12.68z" fill="#FFFFFF" p-id="5773"></path><path d="M536.091 885.189h-0.005c-14.583 0-28.559-0.289-41.54-0.861-19.063-0.83-36.328-2.297-51.313-4.361a0.921 0.921 0 0 1-0.078-0.01c-25.421-3.502-44.531-8.779-56.807-15.684-2.508-0.939-27.93-10.674-55.827-28.844-27.104-17.656-62.202-47.135-75.489-87.314-9.506-28.748-10.09-128.037 13.197-153.725-6.695-1.168-18.556-3.992-31.437-10.58-17.904-9.158-41.103-27.609-49.944-63.512a2.505 2.505 0 0 1 0.26-1.844c11.428-19.894 61.577-83.733 79.021-97.183 25.038-19.306 41.606-23.394 54.919-26.677 2.677-0.661 5.205-1.284 7.665-1.995 6.917-1.997 24.534-6.644 38.675-6.644 4.91 0 9.009 0.567 12.18 1.688 4.288 1.513 7.991 4.071 11.572 6.547 5.645 3.901 10.977 7.586 18.558 7.586 1.085 0 2.209-0.077 3.343-0.229 14.98-2.013 23.319-14.351 25.27-22.152l0.449-1.804c1.826-7.353 2.929-11.791 5.689-14.157 0.68-0.584 2.751-2.359 12.815-2.359 5.813 0 12.908 0.617 20.521 1.786 7.171 1.104 12.835 4.466 18.313 7.716 7.205 4.275 14.654 8.695 26.322 8.695 2.081 0 4.273-0.142 6.518-0.421 13.767-1.709 21.008-7.062 28.674-12.728 6.868-5.076 13.97-10.326 25.874-13.221 5.581-1.358 11.121-2.047 16.465-2.047 15.513 0 24.45 5.719 24.823 5.962 0.588 0.385 0.987 0.998 1.101 1.691 0.03 0.187 3.251 18.929 14.92 22.428 6.969 2.091 13.105 3.15 18.242 3.15 4.941 0 9.127-0.98 12.439-2.915 1.882-1.096 3.668-2.021 5.244-2.835 5.476-2.833 8.142-4.363 8.905-8.159 0.705-3.536 5.561-3.536 7.156-3.536 15.548 0 61.872 13.352 85.515 22.354 22.107 8.427 82.361 39.214 106.585 52.682a2.498 2.498 0 0 1 1.278 2.002c0.308 4.205 0.396 8.558 0.266 12.938-0.598 19.716-4.523 48.772-19.835 75.237-14.312 24.738-35.318 41.713-62.479 50.504 8.218 10.982 35.76 51.025 36.755 95.588 1.684 74.797-46.908 126.875-87.968 157.393-21.671 16.1-66.581 33.203-111.754 42.561-11.024 2.289-21.388 3.961-30.802 4.967-0.164 0.014-7.732 0.547-19.935 1.092-12.569 0.561-32.198 1.23-54.316 1.23z m-92.319-10.193l0.075 0.008c14.848 2.047 31.979 3.504 50.917 4.328 12.91 0.57 26.812 0.857 41.321 0.857h0.005c22.027 0 41.574-0.666 54.094-1.227 12.13-0.541 19.641-1.07 19.715-1.076 9.162-0.982 19.363-2.627 30.229-4.885 44.526-9.223 88.646-25.971 109.786-41.678 40.113-29.814 87.587-80.605 85.952-153.268-1.108-49.59-37.515-94.998-37.883-95.451a2.498 2.498 0 0 1 1.24-3.974c71.485-20.91 81.302-92.399 82.203-122.166 0.112-3.742 0.058-7.462-0.164-11.077-24.838-13.725-83.188-43.503-104.747-51.721-22.756-8.664-68.966-22.025-83.734-22.025-1.31 0-2.036 0.114-2.409 0.205-1.469 5.816-6.064 8.193-11.354 10.931-1.599 0.827-3.252 1.682-5.022 2.714-4.087 2.386-9.12 3.596-14.958 3.596-5.703 0-12.141-1.099-19.68-3.361-12.847-3.852-17.206-20.528-18.189-25.213-2.439-1.288-9.903-4.657-21.218-4.657-4.946 0-10.088 0.641-15.283 1.904-10.925 2.657-17.316 7.382-24.084 12.384-7.848 5.801-15.962 11.799-31.029 13.669a57.97 57.97 0 0 1-7.134 0.459c-13.04 0-21.452-4.991-28.874-9.396-5.301-3.146-10.309-6.117-16.521-7.074-7.364-1.13-14.198-1.728-19.761-1.728-6.545 0-9.133 0.843-9.577 1.168-1.532 1.313-2.599 5.609-4.075 11.554l-0.45 1.812c-1.963 7.852-10.646 23.368-29.455 25.895a30.201 30.201 0 0 1-4.008 0.274c-9.142 0-15.654-4.501-21.401-8.473-3.464-2.394-6.735-4.654-10.394-5.945-2.636-0.931-6.174-1.402-10.516-1.402-13.502 0-30.574 4.509-37.288 6.447-2.554 0.738-5.128 1.373-7.854 2.046-13.527 3.337-28.86 7.119-53.064 25.781-16.87 13.009-65.064 74.304-77.233 94.849 6.873 26.859 22.723 46.801 47.12 59.277 18.455 9.439 35.033 10.809 35.198 10.82a2.501 2.501 0 0 1 1.119 4.621c-23.674 14.568-26.063 120.127-15.606 151.746 24.615 74.441 127.447 112.729 128.483 113.107 0.13 0.047 0.255 0.105 0.375 0.174 11.705 6.634 30.254 11.738 55.133 15.171z" fill="#231815" p-id="5774"></path><path d="M441.736 709.75c-1.33 2.58-5 11.58-10.66 10.92 0 0-7.67-6.67-6.34-11.34 1.34-4.66 8.34-11.66 11-10.33 2.67 1.33 7.34 8.17 6 10.75z" fill="#FFFFFF" p-id="5775"></path><path d="M431.666 723.205c-0.289 0-0.582-0.018-0.88-0.051a2.51 2.51 0 0 1-1.351-0.598c-1.48-1.287-8.784-8.012-7.104-13.91 1.332-4.635 7.949-12.311 12.644-12.311 0.678 0 1.31 0.145 1.879 0.428 2.58 1.285 5.997 5.727 7.166 9.316 0.624 1.914 0.602 3.537-0.065 4.822-0.127 0.246-0.28 0.563-0.457 0.93-1.789 3.692-5.512 11.374-11.832 11.374z m3.164-21.85c-1.69 0.361-6.631 4.979-7.691 8.666-0.535 1.879 2.335 5.715 4.909 8.154 3.043-0.461 5.862-6.279 6.95-8.525 0.181-0.373 0.34-0.699 0.477-0.969 0.186-1.476-2.826-6.179-4.645-7.326z" fill="#231815" p-id="5776"></path><path d="M441.406 472.501c-7 4.5-22-4-25.5-8.5s-4.5-23.41 4.5-24.21c9-0.79 18.59 8.82 21 13.66s7 14.55 0 19.05z" fill="#FFFFFF" p-id="5777"></path><path d="M436.432 476.278c-8.205 0-19.135-6.416-22.499-10.741-3.109-3.999-4.373-15.233-1.358-22.158 2.021-4.644 5.255-5.868 7.61-6.077 10.224-0.892 20.646 9.383 23.46 15.036 2.238 4.495 8.185 16.436-0.887 22.267-1.727 1.109-3.856 1.673-6.326 1.673z m-14.968-34.032a9.79 9.79 0 0 0-0.839 0.036c-0.544 0.049-2.205 0.196-3.466 3.092-2.424 5.567-1.003 14.878 0.721 17.093 2.346 3.017 11.793 8.812 18.552 8.812 1.497 0 2.716-0.296 3.623-0.879 4.671-3.004 2.173-9.689-0.887-15.833-2.163-4.345-10.527-12.321-17.704-12.321zM431.666 721.205c-0.213 0-0.429-0.012-0.647-0.037l-0.154-0.02-0.116-0.102c-0.323-0.279-7.894-6.934-6.492-11.854 1.204-4.189 7.271-10.857 10.72-10.857 0.364 0 0.695 0.072 0.984 0.217 2.111 1.053 5.162 5.088 6.158 8.146 0.452 1.387 0.473 2.49 0.062 3.281-0.135 0.264-0.296 0.596-0.481 0.979-1.613 3.327-4.967 10.247-10.034 10.247z m-0.378-1.016c4.652 0.41 7.944-6.436 9.51-9.666 0.19-0.393 0.354-0.732 0.494-1.002 0.279-0.537 0.236-1.406-0.124-2.514-0.993-3.049-3.939-6.705-5.654-7.561a1.21 1.21 0 0 0-0.538-0.111c-2.751 0-8.588 6.061-9.759 10.133-1.143 4.012 5.13 9.87 6.071 10.721z" fill="#231815" p-id="5778"></path><path d="M436.432 474.278c-7.513 0-17.87-6.048-20.92-9.97-2.704-3.476-3.744-14.065-1.104-20.132 1.29-2.963 3.349-4.651 5.954-4.883 9.16-0.797 18.961 8.853 21.491 13.936 2.21 4.438 7.386 14.831-0.177 19.693-1.399 0.9-3.163 1.356-5.244 1.356z m-14.968-34.032c-0.338 0-0.677 0.015-1.014 0.044-2.25 0.2-3.975 1.642-5.125 4.286-2.655 6.101-1.271 16.231 0.976 19.119 2.618 3.365 12.682 9.583 20.131 9.583 1.887 0 3.469-0.403 4.704-1.197 6.81-4.377 1.913-14.208-0.177-18.406-2.334-4.687-11.086-13.429-19.495-13.429z" fill="#231815" p-id="5779"></path><path d="M401.376 237.372c-4.67 3.5-9.25 7.09-13.97 10.68-14.06 10.7-26.67 22.59-37.4 34.09-10.81-14.58-37.26-56.239-4.6-77.47 0-0.001 29.54-7.97 55.97 32.7z" fill="#E89164" p-id="5780"></path><path d="M350.006 284.641a2.499 2.499 0 0 1-2.008-1.011c-9.206-12.417-24.08-36.408-20.267-57.58 1.742-9.674 7.23-17.571 16.313-23.475 0.219-0.143 0.459-0.25 0.711-0.318 0.109-0.029 2.711-0.718 6.948-0.718 10.969 0 32.278 4.479 51.77 34.47a2.5 2.5 0 0 1-0.598 3.363 808.89 808.89 0 0 0-8.286 6.322c-1.877 1.444-3.762 2.896-5.669 4.347-12.688 9.655-25.165 21.029-37.086 33.805a2.5 2.5 0 0 1-1.828 0.795z m-3.604-77.633c-7.66 5.093-12.285 11.796-13.75 19.928-3.334 18.508 10.012 40.563 17.605 51.291 11.482-12.088 23.459-22.898 35.635-32.165 1.9-1.445 3.777-2.891 5.646-4.33 2.111-1.625 4.279-3.294 6.451-4.939-17.824-26.266-36.566-30.253-46.287-30.253-2.687 0-4.558 0.317-5.3 0.468z" fill="#231815" p-id="5781"></path><path d="M494.656 881.83c-0.86 9.561-2.34 19.93-2.92 27.5-1.33 17.34-38.66 28-55.33 30s-49.31-2.699-48.67-27.33c0.65-24.629 34-28 48-29.33 3.93-0.379 6.33-2.43 7.76-5.189h0.01c16.17 2.23 33.71 3.589 51.15 4.349z" fill="#FFFFFF" p-id="5782"></path><path d="M429.081 942.242c-5.873 0-25.893-0.881-36.927-12.205-4.774-4.9-7.102-10.99-6.917-18.102 0.714-27.047 36.711-30.467 50.263-31.754 2.715-0.262 4.552-1.486 5.776-3.852a2.54 2.54 0 0 1 2.571-1.326c14.848 2.047 31.979 3.504 50.917 4.328a2.506 2.506 0 0 1 1.773 0.852c0.449 0.516 0.669 1.191 0.608 1.871-0.414 4.6-0.965 9.34-1.498 13.926-0.576 4.955-1.12 9.637-1.419 13.541-1.471 19.174-40.12 30.203-57.525 32.291-2.372 0.286-4.937 0.43-7.622 0.43z m15.701-62.064c-2.039 2.906-5.051 4.617-8.806 4.98-21.021 1.998-45.212 6.861-45.741 26.908-0.148 5.711 1.702 10.584 5.5 14.48 9.669 9.924 27.968 10.695 33.346 10.695 2.486 0 4.851-0.133 7.027-0.395 17.392-2.086 51.982-12.678 53.136-27.709 0.307-4.002 0.855-8.73 1.438-13.736 0.429-3.688 0.869-7.477 1.238-11.193-17.378-0.817-33.215-2.171-47.138-4.03z" fill="#231815" p-id="5783"></path><path d="M731.406 282.001c-0.68 0.71-2.23 3.26-4.55 7.41-10.16-12.021-28.431-33.26-51.74-48.72 6.55-12.19 31.23-53.33 60.29-41.36 34 14.001 8 70.001-4 82.67z" fill="#E89164" p-id="5784"></path><path d="M726.856 291.912a2.5 2.5 0 0 1-1.909-0.886c-8.918-10.552-27.476-32.507-51.213-48.251a2.499 2.499 0 0 1-0.82-3.267c5.651-10.518 26.092-44.836 51.852-44.836 3.91 0 7.811 0.79 11.593 2.348 9.426 3.881 15.306 10.989 17.477 21.127 5.048 23.574-12.16 56.648-20.613 65.573-0.193 0.206-1.04 1.287-4.183 6.911a2.5 2.5 0 0 1-2.184 1.281z m-48.45-52.018c21.521 14.727 38.574 34.037 48.045 45.172 1.922-3.306 2.679-4.302 3.149-4.793 7.668-8.097 23.957-39.541 19.345-61.079-1.805-8.43-6.681-14.335-14.491-17.551-3.175-1.308-6.435-1.971-9.688-1.971-21.626 0-39.85 28.594-46.36 40.222z" fill="#231815" p-id="5785"></path><path d="M697.246 912c0.641 24.631-32 29.33-48.67 27.33s-54-12.66-55.33-30c-0.59-7.67-2.1-18.209-2.95-27.869 12.311-0.551 19.78-1.08 19.78-1.08 9.53-1.02 19.87-2.711 30.561-4.93 1.239 3.75 3.77 6.76 8.609 7.219 14 1.33 47.351 4.701 48 29.33z" fill="#FFFFFF" p-id="5786"></path><path d="M655.901 942.242a64.32 64.32 0 0 1-7.623-0.43c-17.405-2.088-56.055-13.117-57.525-32.291-0.298-3.885-0.839-8.539-1.411-13.465-0.55-4.738-1.119-9.637-1.536-14.377a2.503 2.503 0 0 1 2.379-2.717c12.13-0.541 19.641-1.07 19.715-1.076 9.163-0.982 19.363-2.627 30.229-4.885a2.51 2.51 0 0 1 2.882 1.664c1.141 3.451 3.197 5.205 6.472 5.516 13.552 1.287 49.55 4.707 50.263 31.754 0.186 7.111-2.142 13.201-6.916 18.1-11.036 11.326-31.056 12.207-36.929 12.207z m-62.873-58.404c0.377 3.859 0.835 7.805 1.28 11.643 0.578 4.977 1.124 9.676 1.43 13.658 1.153 15.031 35.744 25.623 53.136 27.709a59.19 59.19 0 0 0 7.027 0.395c5.378 0 23.677-0.771 33.347-10.695 3.797-3.898 5.647-8.77 5.499-14.48-0.528-20.047-24.721-24.91-45.737-26.906-4.54-0.432-7.927-2.783-9.905-6.844-10.265 2.076-19.932 3.605-28.763 4.549-0.152 0.012-6.657 0.471-17.314 0.971z" fill="#231815" p-id="5787"></path><path d="M589.798 881.506c-1.437-16.041-0.467-23.604 3.241-25.291l0.414 0.91c-4.164 1.895-3.512 14.77-2.659 24.291l-0.996 0.09zM455.247 462.356l-1.682-4.709c14.603-5.216 22.516-15.751 23.518-31.315 1.044-16.214-5.894-32.161-5.964-32.32l4.573-2.021c0.308 0.694 7.505 17.197 6.381 34.663-1.127 17.49-10.403 29.836-26.826 35.702zM654.634 446.5c-25.425-1.077-44.125-9.038-55.581-23.66-17.238-22.002-11.675-50.785-11.43-52l4.9 0.99c-0.077 0.395-5.297 27.846 10.491 47.96 10.517 13.396 27.954 20.702 51.83 21.714l-0.21 4.996z m-62.111-74.67l-2.45-0.495 2.451 0.492-0.001 0.003z" fill="#231815" p-id="5788"></path><path d="M500.447 433.082c-11.431 0-21.221-4.025-21.836-4.283l1.932-4.611c0.207 0.086 20.905 8.561 35.621 0.136 12.202-6.984 11.389-20.03 10.795-29.557-0.108-1.729-0.21-3.361-0.21-4.765 0-0.881 0-3.221 2.199-3.636 2.231-0.428 2.925 1.356 3.979 4.046 4.854 12.382 13.453 28.454 32.038 25.129 23.565-4.223 25.947-7.969 26.037-8.126-0.003 0.004-0.256 0.486 0.083 1.259l4.578-2.012c0.19 0.435 0.549 1.607-0.25 3.106-0.787 1.476-3.18 5.966-29.565 10.694a32.763 32.763 0 0 1-5.774 0.531c-14.696 0.002-23.155-10.93-27.845-19.865 0.053 9.264-1.764 20.77-13.58 27.534-5.796 3.318-12.224 4.42-18.202 4.42zM426.073 577.27c-2.995 0-5.859-0.258-8.519-0.822l1.037-4.891c21.568 4.572 55.937-13.219 58.646-20.434 2.803-7.461 6.608-24.365 0.959-34.936-2.421-4.527-6.253-7.349-11.717-8.626-22.039-5.16-42.444 14.683-42.648 14.884l-3.518-3.555c0.909-0.9 22.561-21.985 47.305-16.199 6.851 1.602 11.893 5.35 14.987 11.14 8.116 15.184-0.323 38.08-0.687 39.049-3.68 9.8-33.376 24.39-55.845 24.39zM631.046 545.053c-20.57 0-34.006-7.365-41.952-14.029-11.078-9.289-15.804-20.701-16.181-25.71l-0.092-1.178c-0.808-10.246-2.699-34.242 15.716-38.566 17.857-4.198 48.903 15.487 50.217 16.328l-2.694 4.212c-0.305-0.194-30.564-19.376-46.38-15.673-14.235 3.343-12.58 24.341-11.873 33.307l0.093 1.195c0.266 3.543 4.138 13.644 14.407 22.255 8.347 7 23.363 14.826 47.517 12.408l0.5 4.975a93.615 93.615 0 0 1-9.278 0.476z" fill="#231815" p-id="5789"></path><path d="M441.406 472.501c-7 4.5-22-4-25.5-8.5s-4.5-23.41 4.5-24.21c9-0.79 18.59 8.82 21 13.66s7 14.55 0 19.05z" fill="#FDFCE7" p-id="5790"></path><path d="M436.432 476.278c-8.205 0-19.135-6.416-22.499-10.741-3.109-3.999-4.373-15.233-1.358-22.158 2.021-4.644 5.255-5.868 7.61-6.077 10.224-0.892 20.646 9.383 23.46 15.036 2.238 4.495 8.185 16.436-0.887 22.267-1.727 1.109-3.856 1.673-6.326 1.673z m-14.968-34.032a9.79 9.79 0 0 0-0.839 0.036c-0.544 0.049-2.205 0.196-3.466 3.092-2.424 5.567-1.003 14.878 0.721 17.093 2.346 3.017 11.793 8.812 18.552 8.812 1.497 0 2.716-0.296 3.623-0.879 4.671-3.004 2.173-9.689-0.887-15.833-2.163-4.345-10.527-12.321-17.704-12.321z" fill="#231815" p-id="5791"></path><path d="M441.736 709.75c-1.33 2.58-5 11.58-10.66 10.92 0 0-7.67-6.67-6.34-11.34 1.34-4.66 8.34-11.66 11-10.33 2.67 1.33 7.34 8.17 6 10.75z" fill="#FDFCE7" p-id="5792"></path><path d="M431.666 723.205c-0.289 0-0.582-0.018-0.88-0.051l-0.768-0.09-0.583-0.508c-1.48-1.287-8.784-8.012-7.104-13.91 1.332-4.635 7.949-12.311 12.644-12.311 0.678 0 1.31 0.145 1.879 0.428 2.58 1.285 5.997 5.727 7.166 9.316 0.624 1.914 0.602 3.537-0.065 4.822-0.127 0.246-0.28 0.563-0.457 0.93-1.789 3.692-5.512 11.374-11.832 11.374z m3.164-21.85c-1.69 0.361-6.631 4.979-7.691 8.666-0.535 1.879 2.335 5.715 4.909 8.154 3.043-0.461 5.862-6.279 6.95-8.525 0.181-0.373 0.34-0.699 0.477-0.969 0.186-1.476-2.826-6.179-4.645-7.326z" fill="#231815" p-id="5793"></path><path d="M376.951 372.449a32.12 32.094 0 1 0 64.24 0 32.12 32.094 0 1 0-64.24 0Z" fill="#231815" p-id="5794"></path><path d="M624.619 356.355a32.12 32.094 0 1 0 64.24 0 32.12 32.094 0 1 0-64.24 0Z" fill="#231815" p-id="5795"></path><path d="M524.755 756.203c-0.001 0 0.001 0 0 0-2.638 0-5.181-0.16-7.557-0.477a41.21 41.21 0 0 1-5.171-0.986c-3.968-0.996-7.51-2.561-10.486-4.643l-1.174-0.818c-11.953-8.342-30.019-20.949-42.692-32.844a124.973 124.973 0 0 1-4.438-4.375c-5.773-6.002-9.337-11.166-10.897-15.791-1.22-3.617-3.273-18.256-4.672-30.848-2.043-18.369-4.886-50.834-0.972-61.846 0.668-1.879 1.47-4.555 2.399-7.652 4.563-15.217 8.884-28.168 15.543-32.527 0.645-0.42 1.62-1.031 2.821-1.785 4.889-3.064 13.99-8.768 17.967-12.498 0.537-0.5 0.832-0.828 0.981-1.012a84.983 84.983 0 0 0 1.206-6.381c0.689-4.594 0.881-8.246 0.953-9.619 0.026-0.518 0.054-0.848 0.068-0.965 0.121-1.053-0.759-3.717-1.536-6.068-1.51-4.564-3.388-10.246-3.362-17.255 0.041-8.98 13.351-33.295 32.15-66.665 4.206-7.466 8.179-14.518 10.951-19.696 4.237-7.926 6.6-13.283 8.163-16.828 2.137-4.845 3.548-8.046 7.584-8.046 3.012 0 4.673 2.138 6.009 3.854 0.143 0.185 0.291 0.366 0.466 0.56l0.079 0.091c1.316 1.531 3.457 3.55 5.874 5.538 7.284 5.984 13.175 8.711 15.563 8.711 0.472 0 0.943-0.017 1.399-0.048a24.118 24.118 0 0 0 2.398-0.268c4.457-0.738 8.393-2.655 12.199-4.51 2.45-1.193 4.765-2.321 7.141-3.098 1.935-0.62 3.644-0.937 5.25-0.976 0.12-0.005 0.288-0.008 0.456-0.008 9.351 0 14.505 8.836 17.95 16.533 6.703 14.966 2.655 38.971 0.423 46.022-1.02 3.248-3.843 4.9-8.386 4.9-0.701 0-1.478-0.027-2.318-0.06-0.852-0.031-1.78-0.067-2.767-0.067-1.756 0-3.212 0.118-4.584 0.373-1.964 0.366-3.72 1.014-5.362 1.977-3.416 2.003-5.56 13.175-3.049 30.656l0.03 0.213c0.238 1.682 1.701 7.824 10.478 16.048 2.327 2.191 5.05 4.402 8.099 6.58 4.995 3.539 5.729 15.471 5.797 16.82 2.571 51.385 2.244 109.848 1.667 119.865-0.859 15.068-7.822 44.975-18.658 61.926-2.251 3.523-4.61 6.393-7.013 8.525-10.569 9.402-35.987 19.468-56.97 19.468zM488.574 532.23l-0.021 0.395a107.85 107.85 0 0 1-1.052 10.588 93.698 93.698 0 0 1-1.481 7.697c-0.439 1.805-1.601 3.496-3.769 5.512-4.668 4.379-13.941 10.191-19.481 13.664-1.135 0.711-2.058 1.287-2.661 1.682-4.143 2.711-9.068 19.137-11.436 27.029-0.968 3.227-1.804 6.014-2.556 8.129-2.264 6.371-1.68 28.898 1.489 57.393 1.735 15.625 3.59 26.92 4.208 28.756 0.73 2.166 2.821 6.016 8.625 12.051a118.692 118.692 0 0 0 4.082 4.023c12.144 11.395 29.852 23.752 41.569 31.93l1.178 0.822c1.978 1.383 4.41 2.443 7.234 3.15 1.284 0.334 2.608 0.586 3.979 0.758 1.974 0.264 4.073 0.395 6.272 0.395 18.433 0 41.318-8.928 50.329-16.939 1.715-1.523 3.474-3.688 5.229-6.436 9.787-15.311 16.324-43.488 17.102-57.113 0.569-9.885 0.883-67.756-1.672-118.795-0.18-3.617-1.217-8.094-1.97-9.432-3.283-2.365-6.231-4.775-8.783-7.176-10.457-9.803-12.968-17.953-13.533-21.939l-0.027-0.191c-1.785-12.429-3.134-34.244 7.89-40.704 2.655-1.558 5.466-2.599 8.591-3.182 1.966-0.365 4.063-0.542 6.413-0.542 1.121 0 2.175 0.038 3.143 0.075 0.485 0.018 0.945 0.036 1.377 0.045 2.24-9.007 3.774-27.066-0.599-36.829-3.154-7.047-6.123-10.62-8.823-10.62l-0.162 0.003c-0.688 0.017-1.479 0.179-2.465 0.494-1.694 0.555-3.708 1.535-5.841 2.574-4.242 2.066-9.05 4.409-14.959 5.388a33.584 33.584 0 0 1-3.364 0.378 29.84 29.84 0 0 1-2.053 0.069c-7.431 0-16.919-6.883-21.914-10.986-1.869-1.538-3.587-3.084-5.026-4.521-1.566 3.535-4.026 8.948-7.98 16.344-2.824 5.276-6.822 12.374-11.056 19.888-10.775 19.126-30.831 54.728-30.863 61.798-0.02 5.376 1.509 9.998 2.856 14.076 1.249 3.778 2.33 7.046 1.981 10.299z" fill="#231815" p-id="5796"></path><path d="M541.836 410.482c-14.05 40.96-72.09 213.118-85 298.108-4.81-5-8.359-9.77-9.76-13.92-0.88-2.609-2.79-14.949-4.439-29.799 7.939-30.48 21.6-71.34 36.21-112.111 1.279-1.189 2.119-2.229 2.31-3.01a88.496 88.496 0 0 0 1.4-7.279c21.149-58.37 43.43-114.739 52.79-138.129 1.469 1.709 3.79 3.919 6.489 6.14z" fill="#F8FAEB" p-id="5797"></path><path d="M562.326 420.271c-7.52 66.44-86.96 258.43-101.229 292.52-1.5-1.41-2.931-2.82-4.261-4.201 12.91-84.99 70.95-257.148 85-298.108 5.94 4.88 13.74 9.85 18.74 9.85 0.59 0 1.18-0.021 1.75-0.061z" fill="#946759" p-id="5798"></path><path d="M565.176 419.952c-4.27 42.84-26.64 258.41-51.89 329.949-3.31-0.83-6.32-2.109-8.88-3.9-12.09-8.439-30.49-21.18-43.31-33.209 14.27-34.09 93.71-226.08 101.229-292.52a29.086 29.086 0 0 0 2.851-0.32z" fill="#F8FAEB" p-id="5799"></path><path d="M585.267 412.162c-5.891 54.17-57.99 295.28-67.41 338.608a35.88 35.88 0 0 1-4.57-0.869c25.25-71.539 47.62-287.109 51.89-329.949 8.21-1.361 14.519-5.97 20.09-7.79z" fill="#946759" p-id="5800"></path><path d="M576.406 507.67c0.27 1.9 1.66 9.3 12.01 19-0.62 72.021-1.77 157.01-3.89 198.85-1.93 3.021-3.97 5.57-6.12 7.48-10.82 9.621-39.85 20.52-60.55 17.77 9.42-43.328 61.52-284.438 67.41-338.608 1.31-0.42 2.58-0.7 3.819-0.73-0.029 10.23-0.1 31.141-0.26 57.78-2.25 0.42-4.61 1.19-6.979 2.58-9.999 5.86-5.77 33.539-5.44 35.878z" fill="#F8FAEB" p-id="5801"></path><path d="M602.406 666c-0.84 14.721-7.69 43.58-17.88 59.52 2.12-41.84 3.27-126.828 3.89-198.85 2.37 2.23 5.21 4.57 8.61 7 2.16 1.531 3.51 8.98 3.71 13 2.59 51.75 2.22 109.781 1.67 119.33zM603.026 467.471c-0.86 2.74-6.93 0.391-14.2 1.74 0.16-26.64 0.23-47.55 0.26-57.78 4.67-0.16 8.98 2.98 13.721 13.57 5.67 12.661 2.689 34.67 0.219 42.47zM483.597 531.75c0.579-5-4.9-12.9-4.86-23.919 0.05-11.009 30.84-62.219 42.51-84.02 11.66-21.81 9.66-25.119 13.4-20.31 0.2 0.26 0.43 0.54 0.7 0.84-9.36 23.391-31.641 79.76-52.79 138.129 0.889-5.929 0.989-10.31 1.04-10.72zM478.847 552.76c-14.61 40.771-28.271 81.631-36.21 112.111-2.5-22.48-4.4-50.701-1.23-59.621 3.16-8.889 8.65-32.879 15.97-37.67 3.339-2.18 16.149-9.83 21.47-14.82z" fill="#946759" p-id="5802"></path></svg>